<svg xmlns="http://www.w3.org/2000/svg" viewBox="0 0 400 300" width="400" height="300">
<defs><filter id="rough" x="-5%" y="-5%" width="110%" height="110%"><feTurbulence type="fractalNoise" baseFrequency="0.035" numOctaves="2" seed="4" result="n"/><feDisplacementMap in="SourceGraphic" in2="n" scale="3.2"/></filter></defs>
<rect width="400" height="300" fill="#f3dfd6"/>
<rect x="9" y="9" width="382" height="282" rx="10" fill="none" stroke="#8b1e2d" stroke-opacity=".35" stroke-width="2" stroke-dasharray="7 6"/>
<g filter="url(#rough)" stroke="#3b1d1d" stroke-width="2.5" stroke-linejoin="round" stroke-linecap="round">
<circle cx="200.0" cy="150.0" r="124.0" fill="#b98353"/><circle cx="200.0" cy="150.0" r="104.0" fill="#e3a95e"/><circle cx="200.0" cy="150.0" r="90.0" fill="#7a3b1d"/><circle cx="200.0" cy="150.0" r="83.0" fill="#f7d98a"/><ellipse cx="218.6" cy="141.2" rx="16.0" ry="11.0" fill="#fbe9b0" transform="rotate(42.7 218.6 141.2)"/><ellipse cx="171.8" cy="187.2" rx="16.0" ry="11.0" fill="#fbe9b0" transform="rotate(177.4 171.8 187.2)"/><ellipse cx="253.1" cy="137.3" rx="16.0" ry="11.0" fill="#fbe9b0" transform="rotate(79.1 253.1 137.3)"/><ellipse cx="141.5" cy="159.4" rx="16.0" ry="11.0" fill="#fbe9b0" transform="rotate(100.1 141.5 159.4)"/><ellipse cx="226.9" cy="206.7" rx="16.0" ry="11.0" fill="#fbe9b0" transform="rotate(2.5 226.9 206.7)"/><ellipse cx="190.4" cy="188.0" rx="16.0" ry="11.0" fill="#fbe9b0" transform="rotate(10.4 190.4 188.0)"/><ellipse cx="187.0" cy="149.2" rx="16.0" ry="11.0" fill="#fbe9b0" transform="rotate(103.9 187.0 149.2)"/><ellipse cx="160.4" cy="117.2" rx="16.0" ry="11.0" fill="#fbe9b0" transform="rotate(61.8 160.4 117.2)"/><ellipse cx="253.2" cy="158.9" rx="16.0" ry="11.0" fill="#fbe9b0" transform="rotate(174.0 253.2 158.9)"/><rect x="163.2" y="196.5" width="16.0" height="12.0" rx="4" fill="#ecd0a2" stroke-width="2" transform="rotate(20.2 171.2 202.5)"/><rect x="251.1" y="141.7" width="16.0" height="12.0" rx="4" fill="#ecd0a2" stroke-width="2" transform="rotate(67.6 259.1 147.7)"/><rect x="142.7" y="142.6" width="16.0" height="12.0" rx="4" fill="#ecd0a2" stroke-width="2" transform="rotate(36.0 150.7 148.6)"/><rect x="205.0" y="142.6" width="16.0" height="12.0" rx="4" fill="#ecd0a2" stroke-width="2" transform="rotate(47.6 213.0 148.6)"/><rect x="240.9" y="153.4" width="16.0" height="12.0" rx="4" fill="#ecd0a2" stroke-width="2" transform="rotate(68.2 248.9 159.4)"/><rect x="170.4" y="198.1" width="16.0" height="12.0" rx="4" fill="#ecd0a2" stroke-width="2" transform="rotate(64.1 178.4 204.1)"/><rect x="235.4" y="136.4" width="16.0" height="12.0" rx="4" fill="#ecd0a2" stroke-width="2" transform="rotate(65.7 243.4 142.4)"/><rect x="205.6" y="144.0" width="16.0" height="12.0" rx="4" fill="#ecd0a2" stroke-width="2" transform="rotate(71.2 213.6 150.0)"/><rect x="205.7" y="204.5" width="16.0" height="12.0" rx="4" fill="#ecd0a2" stroke-width="2" transform="rotate(29.5 213.7 210.5)"/><rect x="172.2" y="120.9" width="16.0" height="12.0" rx="4" fill="#ecd0a2" stroke-width="2" transform="rotate(61.3 180.2 126.9)"/><rect x="224.7" y="162.1" width="16.0" height="12.0" rx="4" fill="#ecd0a2" stroke-width="2" transform="rotate(85.1 232.7 168.1)"/><rect x="253.2" y="137.8" width="16.0" height="12.0" rx="4" fill="#ecd0a2" stroke-width="2" transform="rotate(69.9 261.2 143.8)"/><rect x="241.3" y="184.6" width="16.0" height="12.0" rx="4" fill="#ecd0a2" stroke-width="2" transform="rotate(39.2 249.3 190.6)"/><circle cx="235.7" cy="182.5" r="9.0" fill="none" stroke="#a23a6a" stroke-width="3"/><circle cx="235.0" cy="130.4" r="9.0" fill="none" stroke="#a23a6a" stroke-width="3"/><circle cx="230.8" cy="180.7" r="9.0" fill="none" stroke="#a23a6a" stroke-width="3"/><circle cx="163.9" cy="160.5" r="9.0" fill="none" stroke="#a23a6a" stroke-width="3"/><circle cx="173.2" cy="182.7" r="9.0" fill="none" stroke="#a23a6a" stroke-width="3"/><circle cx="207.6" cy="168.4" r="9.0" fill="none" stroke="#a23a6a" stroke-width="3"/><path d="M130 140 Q150 120 165 145 T200 140 T235 150 T270 130" fill="none" stroke="#4a2210" stroke-width="4"/><ellipse cx="181.7" cy="188.0" rx="7.0" ry="3.5" fill="#5a9a43" stroke-width="2" transform="rotate(26.8 181.7 188.0)"/><path d="M176.1 188.0 L187.3 188.0" stroke="#3b1d1d" stroke-width="1" transform="rotate(26.8 181.7 188.0)"/><ellipse cx="204.3" cy="120.8" rx="7.0" ry="3.5" fill="#5a9a43" stroke-width="2" transform="rotate(17.2 204.3 120.8)"/><path d="M198.7 120.8 L209.9 120.8" stroke="#3b1d1d" stroke-width="1" transform="rotate(17.2 204.3 120.8)"/><ellipse cx="156.2" cy="145.7" rx="7.0" ry="3.5" fill="#5a9a43" stroke-width="2" transform="rotate(179.0 156.2 145.7)"/><path d="M150.6 145.7 L161.8 145.7" stroke="#3b1d1d" stroke-width="1" transform="rotate(179.0 156.2 145.7)"/><ellipse cx="139.8" cy="124.3" rx="7.0" ry="3.5" fill="#5a9a43" stroke-width="2" transform="rotate(130.1 139.8 124.3)"/><path d="M134.2 124.3 L145.4 124.3" stroke="#3b1d1d" stroke-width="1" transform="rotate(130.1 139.8 124.3)"/><ellipse cx="245.3" cy="184.4" rx="7.0" ry="3.5" fill="#5a9a43" stroke-width="2" transform="rotate(58.2 245.3 184.4)"/><path d="M239.7 184.4 L250.9 184.4" stroke="#3b1d1d" stroke-width="1" transform="rotate(58.2 245.3 184.4)"/><ellipse cx="229.1" cy="131.7" rx="7.0" ry="3.5" fill="#5a9a43" stroke-width="2" transform="rotate(156.2 229.1 131.7)"/><path d="M223.5 131.7 L234.7 131.7" stroke="#3b1d1d" stroke-width="1" transform="rotate(156.2 229.1 131.7)"/><ellipse cx="244.4" cy="117.3" rx="7.0" ry="3.5" fill="#5a9a43" stroke-width="2" transform="rotate(175.3 244.4 117.3)"/><path d="M238.8 117.3 L250.0 117.3" stroke="#3b1d1d" stroke-width="1" transform="rotate(175.3 244.4 117.3)"/><path d="M200.0 150.0 L296.2 189.5" fill="none" stroke="#3b1d1d" stroke-width="1.6"/><path d="M200.0 150.0 L240.1 246.0" fill="none" stroke="#3b1d1d" stroke-width="1.6"/><path d="M200.0 150.0 L160.5 246.2" fill="none" stroke="#3b1d1d" stroke-width="1.6"/><path d="M200.0 150.0 L104.0 190.1" fill="none" stroke="#3b1d1d" stroke-width="1.6"/><path d="M200.0 150.0 L103.8 110.5" fill="none" stroke="#3b1d1d" stroke-width="1.6"/><path d="M200.0 150.0 L159.9 54.0" fill="none" stroke="#3b1d1d" stroke-width="1.6"/><path d="M200.0 150.0 L239.5 53.8" fill="none" stroke="#3b1d1d" stroke-width="1.6"/><path d="M200.0 150.0 L296.0 109.9" fill="none" stroke="#3b1d1d" stroke-width="1.6"/>
</g>
</svg>
