<svg xmlns="http://www.w3.org/2000/svg" viewBox="0 0 400 300" width="400" height="300">
<defs><filter id="rough" x="-5%" y="-5%" width="110%" height="110%"><feTurbulence type="fractalNoise" baseFrequency="0.035" numOctaves="2" seed="4" result="n"/><feDisplacementMap in="SourceGraphic" in2="n" scale="3.2"/></filter></defs>
<rect width="400" height="300" fill="#f2e3cf"/>
<rect x="9" y="9" width="382" height="282" rx="10" fill="none" stroke="#8b1e2d" stroke-opacity=".35" stroke-width="2" stroke-dasharray="7 6"/>
<g filter="url(#rough)" stroke="#3b1d1d" stroke-width="2.5" stroke-linejoin="round" stroke-linecap="round">
<circle cx="200.0" cy="150.0" r="124.0" fill="#b98353"/><circle cx="200.0" cy="150.0" r="112.0" fill="#c9955f" stroke-width="1.6"/><rect x="108.0" y="78.0" width="84.0" height="60.0" rx="14" fill="#e0b36a" transform="rotate(-8.0 150.0 108.0)"/><rect x="114.0" y="84.0" width="72.0" height="48.0" rx="10" fill="#ecc888" stroke-width="1.2" transform="rotate(-8.0 150.0 108.0)"/><rect x="155.2" y="121.0" width="10.0" height="10.0" rx="2" fill="#d63a2c" stroke-width="1.8" transform="rotate(37.4 160.2 126.0)"/><rect x="143.2" y="93.8" width="10.0" height="10.0" rx="2" fill="#d63a2c" stroke-width="1.8" transform="rotate(51.9 148.2 98.8)"/><rect x="128.0" y="110.9" width="10.0" height="10.0" rx="2" fill="#d63a2c" stroke-width="1.8" transform="rotate(16.3 133.0 115.9)"/><rect x="151.4" y="105.2" width="10.0" height="10.0" rx="2" fill="#d63a2c" stroke-width="1.8" transform="rotate(8.6 156.4 110.2)"/><rect x="145.2" y="82.9" width="10.0" height="10.0" rx="2" fill="#d63a2c" stroke-width="1.8" transform="rotate(78.8 150.2 87.9)"/><rect x="131.0" y="96.4" width="10.0" height="10.0" rx="2" fill="#d63a2c" stroke-width="1.8" transform="rotate(2.9 136.0 101.4)"/><rect x="146.5" y="104.5" width="10.0" height="10.0" rx="2" fill="#d63a2c" stroke-width="1.8" transform="rotate(51.8 151.5 109.5)"/><rect x="124.1" y="114.5" width="10.0" height="10.0" rx="2" fill="#d63a2c" stroke-width="1.8" transform="rotate(35.6 129.1 119.5)"/><ellipse cx="156.0" cy="106.0" rx="10.0" ry="5.0" fill="#5a9a43" stroke-width="2" transform="rotate(23.5 156.0 106.0)"/><path d="M148.0 106.0 L164.0 106.0" stroke="#3b1d1d" stroke-width="1" transform="rotate(23.5 156.0 106.0)"/><circle cx="150.1" cy="104.5" r="2.0" fill="#f8e58a" stroke="none"/><circle cx="139.2" cy="98.4" r="2.0" fill="#f8e58a" stroke="none"/><circle cx="159.7" cy="92.6" r="2.0" fill="#f8e58a" stroke="none"/><rect x="190.0" y="74.0" width="84.0" height="60.0" rx="14" fill="#e0b36a" transform="rotate(6.0 232.0 104.0)"/><rect x="196.0" y="80.0" width="72.0" height="48.0" rx="10" fill="#ecc888" stroke-width="1.2" transform="rotate(6.0 232.0 104.0)"/><rect x="214.2" y="108.7" width="10.0" height="10.0" rx="2" fill="#d63a2c" stroke-width="1.8" transform="rotate(15.2 219.2 113.7)"/><rect x="208.5" y="105.1" width="10.0" height="10.0" rx="2" fill="#d63a2c" stroke-width="1.8" transform="rotate(19.8 213.5 110.1)"/><rect x="248.2" y="106.7" width="10.0" height="10.0" rx="2" fill="#d63a2c" stroke-width="1.8" transform="rotate(71.6 253.2 111.7)"/><rect x="215.7" y="92.4" width="10.0" height="10.0" rx="2" fill="#d63a2c" stroke-width="1.8" transform="rotate(9.5 220.7 97.4)"/><rect x="206.4" y="110.3" width="10.0" height="10.0" rx="2" fill="#d63a2c" stroke-width="1.8" transform="rotate(2.7 211.4 115.3)"/><rect x="240.1" y="106.7" width="10.0" height="10.0" rx="2" fill="#d63a2c" stroke-width="1.8" transform="rotate(29.5 245.1 111.7)"/><rect x="234.1" y="113.3" width="10.0" height="10.0" rx="2" fill="#d63a2c" stroke-width="1.8" transform="rotate(28.5 239.1 118.3)"/><rect x="235.0" y="91.9" width="10.0" height="10.0" rx="2" fill="#d63a2c" stroke-width="1.8" transform="rotate(77.9 240.0 96.9)"/><ellipse cx="238.0" cy="102.0" rx="10.0" ry="5.0" fill="#5a9a43" stroke-width="2" transform="rotate(59.2 238.0 102.0)"/><path d="M230.0 102.0 L246.0 102.0" stroke="#3b1d1d" stroke-width="1" transform="rotate(59.2 238.0 102.0)"/><circle cx="227.3" cy="90.0" r="2.0" fill="#f8e58a" stroke="none"/><circle cx="244.2" cy="91.5" r="2.0" fill="#f8e58a" stroke="none"/><circle cx="221.8" cy="103.3" r="2.0" fill="#f8e58a" stroke="none"/><rect x="104.0" y="158.0" width="84.0" height="60.0" rx="14" fill="#e0b36a" transform="rotate(5.0 146.0 188.0)"/><rect x="110.0" y="164.0" width="72.0" height="48.0" rx="10" fill="#ecc888" stroke-width="1.2" transform="rotate(5.0 146.0 188.0)"/><rect x="150.6" y="172.8" width="10.0" height="10.0" rx="2" fill="#d63a2c" stroke-width="1.8" transform="rotate(63.0 155.6 177.8)"/><rect x="134.5" y="186.3" width="10.0" height="10.0" rx="2" fill="#d63a2c" stroke-width="1.8" transform="rotate(82.1 139.5 191.3)"/><rect x="145.0" y="187.7" width="10.0" height="10.0" rx="2" fill="#d63a2c" stroke-width="1.8" transform="rotate(30.5 150.0 192.7)"/><rect x="141.5" y="204.7" width="10.0" height="10.0" rx="2" fill="#d63a2c" stroke-width="1.8" transform="rotate(72.1 146.5 209.7)"/><rect x="157.9" y="170.8" width="10.0" height="10.0" rx="2" fill="#d63a2c" stroke-width="1.8" transform="rotate(88.5 162.9 175.8)"/><rect x="149.7" y="162.3" width="10.0" height="10.0" rx="2" fill="#d63a2c" stroke-width="1.8" transform="rotate(17.2 154.7 167.3)"/><rect x="129.3" y="191.8" width="10.0" height="10.0" rx="2" fill="#d63a2c" stroke-width="1.8" transform="rotate(41.2 134.3 196.8)"/><rect x="131.8" y="175.3" width="10.0" height="10.0" rx="2" fill="#d63a2c" stroke-width="1.8" transform="rotate(89.2 136.8 180.3)"/><ellipse cx="152.0" cy="186.0" rx="10.0" ry="5.0" fill="#5a9a43" stroke-width="2" transform="rotate(34.5 152.0 186.0)"/><path d="M144.0 186.0 L160.0 186.0" stroke="#3b1d1d" stroke-width="1" transform="rotate(34.5 152.0 186.0)"/><circle cx="134.6" cy="196.2" r="2.0" fill="#f8e58a" stroke="none"/><circle cx="153.5" cy="184.0" r="2.0" fill="#f8e58a" stroke="none"/><circle cx="150.2" cy="196.9" r="2.0" fill="#f8e58a" stroke="none"/><rect x="188.0" y="160.0" width="84.0" height="60.0" rx="14" fill="#e0b36a" transform="rotate(-6.0 230.0 190.0)"/><rect x="194.0" y="166.0" width="72.0" height="48.0" rx="10" fill="#ecc888" stroke-width="1.2" transform="rotate(-6.0 230.0 190.0)"/><rect x="224.5" y="173.8" width="10.0" height="10.0" rx="2" fill="#d63a2c" stroke-width="1.8" transform="rotate(9.9 229.5 178.8)"/><rect x="232.5" y="181.0" width="10.0" height="10.0" rx="2" fill="#d63a2c" stroke-width="1.8" transform="rotate(70.4 237.5 186.0)"/><rect x="237.9" y="199.8" width="10.0" height="10.0" rx="2" fill="#d63a2c" stroke-width="1.8" transform="rotate(5.7 242.9 204.8)"/><rect x="230.6" y="163.3" width="10.0" height="10.0" rx="2" fill="#d63a2c" stroke-width="1.8" transform="rotate(13.6 235.6 168.3)"/><rect x="215.6" y="206.0" width="10.0" height="10.0" rx="2" fill="#d63a2c" stroke-width="1.8" transform="rotate(16.0 220.6 211.0)"/><rect x="221.6" y="163.3" width="10.0" height="10.0" rx="2" fill="#d63a2c" stroke-width="1.8" transform="rotate(88.5 226.6 168.3)"/><rect x="225.4" y="205.4" width="10.0" height="10.0" rx="2" fill="#d63a2c" stroke-width="1.8" transform="rotate(42.6 230.4 210.4)"/><rect x="210.6" y="166.7" width="10.0" height="10.0" rx="2" fill="#d63a2c" stroke-width="1.8" transform="rotate(86.7 215.6 171.7)"/><ellipse cx="236.0" cy="188.0" rx="10.0" ry="5.0" fill="#5a9a43" stroke-width="2" transform="rotate(23.0 236.0 188.0)"/><path d="M228.0 188.0 L244.0 188.0" stroke="#3b1d1d" stroke-width="1" transform="rotate(23.0 236.0 188.0)"/><circle cx="220.6" cy="174.1" r="2.0" fill="#f8e58a" stroke="none"/><circle cx="243.0" cy="190.7" r="2.0" fill="#f8e58a" stroke="none"/><circle cx="241.0" cy="190.5" r="2.0" fill="#f8e58a" stroke="none"/>
</g>
</svg>
