<svg xmlns="http://www.w3.org/2000/svg" viewBox="0 0 400 300" width="400" height="300">
<defs><filter id="rough" x="-5%" y="-5%" width="110%" height="110%"><feTurbulence type="fractalNoise" baseFrequency="0.035" numOctaves="2" seed="4" result="n"/><feDisplacementMap in="SourceGraphic" in2="n" scale="3.2"/></filter></defs>
<rect width="400" height="300" fill="#efe6cf"/>
<rect x="9" y="9" width="382" height="282" rx="10" fill="none" stroke="#8b1e2d" stroke-opacity=".35" stroke-width="2" stroke-dasharray="7 6"/>
<g filter="url(#rough)" stroke="#3b1d1d" stroke-width="2.5" stroke-linejoin="round" stroke-linecap="round">
<ellipse cx="200" cy="262" rx="82" ry="12" fill="#3b1d1d" fill-opacity=".18" stroke="none"/><path d="M138 70 L262 70 L250 238 Q200 250 150 238 Z" fill="#fffaf0"/><path d="M143 98 L257 98 L247 232 Q200 243 153 232 Z" fill="#6b3a1f"/><path d="M143 98 L257 98 L255 140 Q200 156 145 140 Z" fill="#ead6b4"/><path d="M148 128 Q175 150 200 130 T252 138" fill="none" stroke="#c9a273" stroke-width="3"/><rect x="154.0" y="104.0" width="32.0" height="32.0" rx="6" fill="#e8f4f8" stroke-width="2" transform="rotate(12.0 170.0 120.0)"/><rect x="206.0" y="96.0" width="32.0" height="32.0" rx="6" fill="#e8f4f8" stroke-width="2" transform="rotate(-10.0 222.0 112.0)"/><rect x="176.0" y="142.0" width="32.0" height="32.0" rx="6" fill="#e8f4f8" stroke-width="2" transform="rotate(28.0 192.0 158.0)"/><rect x="216.0" y="152.0" width="32.0" height="32.0" rx="6" fill="#e8f4f8" stroke-width="2" transform="rotate(-18.0 232.0 168.0)"/><rect x="152.0" y="174.0" width="32.0" height="32.0" rx="6" fill="#e8f4f8" stroke-width="2" transform="rotate(-8.0 168.0 190.0)"/><ellipse cx="110.0" cy="120.0" rx="8.0" ry="5.0" fill="#3a1c10" stroke-width="1.8" transform="rotate(30.0 110.0 120.0)"/><ellipse cx="292.0" cy="214.0" rx="8.0" ry="5.0" fill="#3a1c10" stroke-width="1.8" transform="rotate(30.0 292.0 214.0)"/><path d="M205.0 40.0 L188.0 220.0" fill="none" stroke="#b3202f" stroke-width="9"/><path d="M205.0 40.0 L188.0 220.0" fill="none" stroke="#ffffff" stroke-width="3"/>
</g>
</svg>
