<svg xmlns="http://www.w3.org/2000/svg" viewBox="0 0 400 300" width="400" height="300">
<defs><filter id="rough" x="-5%" y="-5%" width="110%" height="110%"><feTurbulence type="fractalNoise" baseFrequency="0.035" numOctaves="2" seed="4" result="n"/><feDisplacementMap in="SourceGraphic" in2="n" scale="3.2"/></filter></defs>
<rect width="400" height="300" fill="#f1dcd0"/>
<rect x="9" y="9" width="382" height="282" rx="10" fill="none" stroke="#8b1e2d" stroke-opacity=".35" stroke-width="2" stroke-dasharray="7 6"/>
<g filter="url(#rough)" stroke="#3b1d1d" stroke-width="2.5" stroke-linejoin="round" stroke-linecap="round">
<circle cx="200.0" cy="150.0" r="124.0" fill="#b98353"/><circle cx="200.0" cy="150.0" r="104.0" fill="#e3a95e"/><circle cx="200.0" cy="150.0" r="90.0" fill="#c8402f"/><circle cx="200.0" cy="150.0" r="83.0" fill="#f7d98a"/><ellipse cx="240.1" cy="133.7" rx="16.0" ry="11.0" fill="#fbe9b0" transform="rotate(77.4 240.1 133.7)"/><ellipse cx="248.1" cy="128.7" rx="16.0" ry="11.0" fill="#fbe9b0" transform="rotate(81.5 248.1 128.7)"/><ellipse cx="249.2" cy="175.3" rx="16.0" ry="11.0" fill="#fbe9b0" transform="rotate(122.9 249.2 175.3)"/><ellipse cx="198.0" cy="206.4" rx="16.0" ry="11.0" fill="#fbe9b0" transform="rotate(127.8 198.0 206.4)"/><ellipse cx="175.2" cy="140.1" rx="16.0" ry="11.0" fill="#fbe9b0" transform="rotate(41.2 175.2 140.1)"/><ellipse cx="146.6" cy="164.2" rx="16.0" ry="11.0" fill="#fbe9b0" transform="rotate(5.9 146.6 164.2)"/><ellipse cx="253.0" cy="138.4" rx="16.0" ry="11.0" fill="#fbe9b0" transform="rotate(42.5 253.0 138.4)"/><ellipse cx="255.3" cy="169.7" rx="16.0" ry="11.0" fill="#fbe9b0" transform="rotate(69.1 255.3 169.7)"/><ellipse cx="259.7" cy="133.3" rx="16.0" ry="11.0" fill="#fbe9b0" transform="rotate(80.0 259.7 133.3)"/><circle cx="215.6" cy="177.2" r="14.0" fill="#fffdf4" stroke-width="2"/><circle cx="142.1" cy="134.1" r="14.0" fill="#fffdf4" stroke-width="2"/><circle cx="228.7" cy="152.9" r="14.0" fill="#fffdf4" stroke-width="2"/><circle cx="210.3" cy="111.9" r="14.0" fill="#fffdf4" stroke-width="2"/><circle cx="148.8" cy="173.1" r="14.0" fill="#fffdf4" stroke-width="2"/><circle cx="186.7" cy="129.7" r="14.0" fill="#fffdf4" stroke-width="2"/><ellipse cx="229.8" cy="135.0" rx="12.0" ry="6.0" fill="#5a9a43" stroke-width="2" transform="rotate(63.8 229.8 135.0)"/><path d="M220.2 135.0 L239.4 135.0" stroke="#3b1d1d" stroke-width="1" transform="rotate(63.8 229.8 135.0)"/><ellipse cx="221.6" cy="89.5" rx="12.0" ry="6.0" fill="#5a9a43" stroke-width="2" transform="rotate(37.5 221.6 89.5)"/><path d="M212.0 89.5 L231.2 89.5" stroke="#3b1d1d" stroke-width="1" transform="rotate(37.5 221.6 89.5)"/><ellipse cx="223.5" cy="113.2" rx="12.0" ry="6.0" fill="#5a9a43" stroke-width="2" transform="rotate(12.8 223.5 113.2)"/><path d="M213.9 113.2 L233.1 113.2" stroke="#3b1d1d" stroke-width="1" transform="rotate(12.8 223.5 113.2)"/><ellipse cx="138.0" cy="147.2" rx="12.0" ry="6.0" fill="#5a9a43" stroke-width="2" transform="rotate(17.4 138.0 147.2)"/><path d="M128.4 147.2 L147.6 147.2" stroke="#3b1d1d" stroke-width="1" transform="rotate(17.4 138.0 147.2)"/><ellipse cx="183.0" cy="202.8" rx="12.0" ry="6.0" fill="#5a9a43" stroke-width="2" transform="rotate(78.8 183.0 202.8)"/><path d="M173.4 202.8 L192.6 202.8" stroke="#3b1d1d" stroke-width="1" transform="rotate(78.8 183.0 202.8)"/><ellipse cx="246.5" cy="123.1" rx="12.0" ry="6.0" fill="#5a9a43" stroke-width="2" transform="rotate(97.0 246.5 123.1)"/><path d="M236.9 123.1 L256.1 123.1" stroke="#3b1d1d" stroke-width="1" transform="rotate(97.0 246.5 123.1)"/><ellipse cx="212.9" cy="87.0" rx="12.0" ry="6.0" fill="#5a9a43" stroke-width="2" transform="rotate(125.3 212.9 87.0)"/><path d="M203.3 87.0 L222.5 87.0" stroke="#3b1d1d" stroke-width="1" transform="rotate(125.3 212.9 87.0)"/><ellipse cx="218.3" cy="92.9" rx="12.0" ry="6.0" fill="#5a9a43" stroke-width="2" transform="rotate(112.9 218.3 92.9)"/><path d="M208.7 92.9 L227.9 92.9" stroke="#3b1d1d" stroke-width="1" transform="rotate(112.9 218.3 92.9)"/><path d="M200.0 150.0 L296.2 189.5" fill="none" stroke="#3b1d1d" stroke-width="1.6"/><path d="M200.0 150.0 L240.1 246.0" fill="none" stroke="#3b1d1d" stroke-width="1.6"/><path d="M200.0 150.0 L160.5 246.2" fill="none" stroke="#3b1d1d" stroke-width="1.6"/><path d="M200.0 150.0 L104.0 190.1" fill="none" stroke="#3b1d1d" stroke-width="1.6"/><path d="M200.0 150.0 L103.8 110.5" fill="none" stroke="#3b1d1d" stroke-width="1.6"/><path d="M200.0 150.0 L159.9 54.0" fill="none" stroke="#3b1d1d" stroke-width="1.6"/><path d="M200.0 150.0 L239.5 53.8" fill="none" stroke="#3b1d1d" stroke-width="1.6"/><path d="M200.0 150.0 L296.0 109.9" fill="none" stroke="#3b1d1d" stroke-width="1.6"/>
</g>
</svg>
