<svg xmlns="http://www.w3.org/2000/svg" viewBox="0 0 640 400"><rect width="640" height="400" fill="#d6ecef"/><rect x="14" y="14" width="612" height="372" rx="14" fill="none" stroke="#2a1218" stroke-width="2" stroke-dasharray="7 6" opacity=".4"/><ellipse cx="352" cy="130" rx="6" ry="6" fill="#f2c14e" stroke="#2a1218" stroke-width="2" transform="rotate(0 352 130)"/><rect x="253" y="65" width="15" height="14" rx="2" fill="#c2391f" stroke="#2a1218" stroke-width="2" transform="rotate(37 260.5 72.0)"/><rect x="476" y="200" width="10" height="11" rx="2" fill="#fff" stroke="#2a1218" stroke-width="2" transform="rotate(60 481.0 205.5)"/><rect x="156" y="162" width="13" height="11" rx="2" fill="#1f7a8c" stroke="#2a1218" stroke-width="2" transform="rotate(43 162.5 167.5)"/><ellipse cx="262" cy="99" rx="8" ry="8" fill="#c2391f" stroke="#2a1218" stroke-width="2" transform="rotate(0 262 99)"/><rect x="320" y="58" width="15" height="15" rx="2" fill="#f2c14e" stroke="#2a1218" stroke-width="2" transform="rotate(60 327.5 65.5)"/><ellipse cx="283" cy="74" rx="8" ry="8" fill="#1f7a8c" stroke="#2a1218" stroke-width="2" transform="rotate(0 283 74)"/><rect x="303" y="98" width="14" height="9" rx="2" fill="#f2c14e" stroke="#2a1218" stroke-width="2" transform="rotate(13 310.0 102.5)"/><ellipse cx="196" cy="186" rx="7" ry="7" fill="#fff" stroke="#2a1218" stroke-width="2" transform="rotate(0 196 186)"/><ellipse cx="194" cy="234" rx="8" ry="8" fill="#1f7a8c" stroke="#2a1218" stroke-width="2" transform="rotate(0 194 234)"/><ellipse cx="242" cy="217" rx="6" ry="6" fill="#c2391f" stroke="#2a1218" stroke-width="2" transform="rotate(0 242 217)"/><ellipse cx="434" cy="170" rx="8" ry="8" fill="#1f7a8c" stroke="#2a1218" stroke-width="2" transform="rotate(0 434 170)"/><rect x="436" y="40" width="9" height="9" rx="2" fill="#f2c14e" stroke="#2a1218" stroke-width="2" transform="rotate(58 440.5 44.5)"/><ellipse cx="289" cy="243" rx="6" ry="6" fill="#fff" stroke="#2a1218" stroke-width="2" transform="rotate(0 289 243)"/><rect x="521" y="249" width="9" height="12" rx="2" fill="#f2c14e" stroke="#2a1218" stroke-width="2" transform="rotate(57 525.5 255.0)"/><rect x="368" y="106" width="15" height="11" rx="2" fill="#f2c14e" stroke="#2a1218" stroke-width="2" transform="rotate(50 375.5 111.5)"/><ellipse cx="389" cy="169" rx="7" ry="7" fill="#c2391f" stroke="#2a1218" stroke-width="2" transform="rotate(0 389 169)"/><ellipse cx="465" cy="264" rx="5" ry="5" fill="#1f7a8c" stroke="#2a1218" stroke-width="2" transform="rotate(0 465 264)"/><g transform="translate(0 0) rotate(0.0 320 200)"><rect x="130" y="70" width="380" height="230" rx="14" fill="#fff" stroke="#2a1218" stroke-width="3" transform="rotate(0 320.0 185.0)"/><path d="M230 300 L200 360" fill="none" stroke="#2a1218" stroke-width="3" stroke-linecap="round" stroke-linejoin="round"/><path d="M410 300 L440 360" fill="none" stroke="#2a1218" stroke-width="3" stroke-linecap="round" stroke-linejoin="round"/><rect x="170" y="222" width="46" height="50" rx="3" fill="#1f7a8c" stroke="#2a1218" stroke-width="3" transform="rotate(0 193.0 247.0)"/><rect x="242" y="192" width="46" height="80" rx="3" fill="#f2c14e" stroke="#2a1218" stroke-width="3" transform="rotate(0 265.0 232.0)"/><rect x="314" y="157" width="46" height="115" rx="3" fill="#c2391f" stroke="#2a1218" stroke-width="3" transform="rotate(0 337.0 214.5)"/><rect x="386" y="122" width="46" height="150" rx="3" fill="#1f7a8c" stroke="#2a1218" stroke-width="3" transform="rotate(0 409.0 197.0)"/><path d="M165 190 L255 158 L330 180 L450 105" fill="none" stroke="#2a1218" stroke-width="5" stroke-linecap="round" stroke-linejoin="round"/><path d="M450 105 L426 108 M450 105 L444 130" fill="none" stroke="#2a1218" stroke-width="5" stroke-linecap="round" stroke-linejoin="round"/><ellipse cx="572" cy="120" rx="24" ry="24" fill="#f2c14e" stroke="#2a1218" stroke-width="3" transform="rotate(0 572 120)"/><rect x="560" y="142" width="24" height="16" rx="3" fill="#c0c6cf" stroke="#2a1218" stroke-width="3" transform="rotate(0 572.0 150.0)"/><path d="M549 95 L541 86" fill="none" stroke="#2a1218" stroke-width="3" stroke-linecap="round" stroke-linejoin="round"/><path d="M572 86 L572 74" fill="none" stroke="#2a1218" stroke-width="3" stroke-linecap="round" stroke-linejoin="round"/><path d="M595 95 L603 86" fill="none" stroke="#2a1218" stroke-width="3" stroke-linecap="round" stroke-linejoin="round"/><path d="M538 120 L526 120" fill="none" stroke="#2a1218" stroke-width="3" stroke-linecap="round" stroke-linejoin="round"/><path d="M606 120 L618 120" fill="none" stroke="#2a1218" stroke-width="3" stroke-linecap="round" stroke-linejoin="round"/></g></svg>