<svg xmlns="http://www.w3.org/2000/svg" viewBox="0 0 640 400"><rect width="640" height="400" fill="#fbefc6"/><rect x="14" y="14" width="612" height="372" rx="14" fill="none" stroke="#2a1218" stroke-width="2" stroke-dasharray="7 6" opacity=".4"/><ellipse cx="248" cy="342" rx="4" ry="4" fill="#fff" stroke="#2a1218" stroke-width="2" transform="rotate(0 248 342)"/><ellipse cx="67" cy="85" rx="5" ry="5" fill="#6a994e" stroke="#2a1218" stroke-width="2" transform="rotate(0 67 85)"/><rect x="220" y="50" width="14" height="14" rx="2" fill="#6a994e" stroke="#2a1218" stroke-width="2" transform="rotate(74 227.0 57.0)"/><rect x="529" y="40" width="14" height="15" rx="2" fill="#6a994e" stroke="#2a1218" stroke-width="2" transform="rotate(28 536.0 47.5)"/><rect x="581" y="292" width="13" height="14" rx="2" fill="#c2391f" stroke="#2a1218" stroke-width="2" transform="rotate(3 587.5 299.0)"/><ellipse cx="504" cy="43" rx="6" ry="6" fill="#6a994e" stroke="#2a1218" stroke-width="2" transform="rotate(0 504 43)"/><ellipse cx="311" cy="243" rx="6" ry="6" fill="#c98a00" stroke="#2a1218" stroke-width="2" transform="rotate(0 311 243)"/><ellipse cx="105" cy="198" rx="5" ry="5" fill="#c98a00" stroke="#2a1218" stroke-width="2" transform="rotate(0 105 198)"/><ellipse cx="234" cy="201" rx="6" ry="6" fill="#c98a00" stroke="#2a1218" stroke-width="2" transform="rotate(0 234 201)"/><ellipse cx="356" cy="90" rx="8" ry="8" fill="#c2391f" stroke="#2a1218" stroke-width="2" transform="rotate(0 356 90)"/><ellipse cx="599" cy="109" rx="7" ry="7" fill="#c98a00" stroke="#2a1218" stroke-width="2" transform="rotate(0 599 109)"/><ellipse cx="526" cy="162" rx="4" ry="4" fill="#c98a00" stroke="#2a1218" stroke-width="2" transform="rotate(0 526 162)"/><ellipse cx="166" cy="164" rx="4" ry="4" fill="#c98a00" stroke="#2a1218" stroke-width="2" transform="rotate(0 166 164)"/><rect x="445" y="60" width="9" height="10" rx="2" fill="#c2391f" stroke="#2a1218" stroke-width="2" transform="rotate(19 449.5 65.0)"/><ellipse cx="356" cy="155" rx="4" ry="4" fill="#c98a00" stroke="#2a1218" stroke-width="2" transform="rotate(0 356 155)"/><rect x="494" y="48" width="9" height="10" rx="2" fill="#6a994e" stroke="#2a1218" stroke-width="2" transform="rotate(88 498.5 53.0)"/><ellipse cx="568" cy="66" rx="4" ry="4" fill="#6a994e" stroke="#2a1218" stroke-width="2" transform="rotate(0 568 66)"/><ellipse cx="295" cy="342" rx="6" ry="6" fill="#c98a00" stroke="#2a1218" stroke-width="2" transform="rotate(0 295 342)"/><g transform="translate(0 0) rotate(0.0 320 200)"><path d="M165 225 H475 Q470 340 320 345 Q170 340 165 225 Z" fill="#c98a00" stroke="#2a1218" stroke-width="3" stroke-linecap="round" stroke-linejoin="round"/><ellipse cx="320" cy="225" rx="155" ry="30" fill="#6a994e" stroke="#2a1218" stroke-width="3" transform="rotate(0 320 225)"/><ellipse cx="270" cy="222" rx="9" ry="9" fill="#c2391f" stroke="#2a1218" stroke-width="2" transform="rotate(0 270 222)"/><ellipse cx="330" cy="230" rx="9" ry="9" fill="#c2391f" stroke="#2a1218" stroke-width="2" transform="rotate(0 330 230)"/><ellipse cx="380" cy="220" rx="9" ry="9" fill="#c2391f" stroke="#2a1218" stroke-width="2" transform="rotate(0 380 220)"/><ellipse cx="300" cy="215" rx="9" ry="9" fill="#c2391f" stroke="#2a1218" stroke-width="2" transform="rotate(0 300 215)"/><path d="M270 190 q-16 -22 0 -44 q16 -22 0 -44" fill="none" stroke="#2a1218" stroke-width="3" stroke-linecap="round" stroke-linejoin="round"/><path d="M320 190 q-16 -22 0 -44 q16 -22 0 -44" fill="none" stroke="#2a1218" stroke-width="3" stroke-linecap="round" stroke-linejoin="round"/><path d="M370 190 q-16 -22 0 -44 q16 -22 0 -44" fill="none" stroke="#2a1218" stroke-width="3" stroke-linecap="round" stroke-linejoin="round"/><rect x="470" y="100" width="16" height="160" rx="8" fill="#e8d9c0" stroke="#2a1218" stroke-width="3" transform="rotate(28 478.0 180.0)"/><ellipse cx="158" cy="128" rx="28" ry="28" fill="#fff" stroke="#2a1218" stroke-width="3" transform="rotate(0 158 128)"/><ellipse cx="194" cy="106" rx="32" ry="32" fill="#fff" stroke="#2a1218" stroke-width="3" transform="rotate(0 194 106)"/><ellipse cx="232" cy="128" rx="28" ry="28" fill="#fff" stroke="#2a1218" stroke-width="3" transform="rotate(0 232 128)"/><rect x="148" y="130" width="96" height="44" rx="6" fill="#fff" stroke="#2a1218" stroke-width="3" transform="rotate(0 196.0 152.0)"/><rect x="148" y="166" width="96" height="14" rx="3" fill="#c2391f" stroke="#2a1218" stroke-width="3" transform="rotate(0 196.0 173.0)"/></g></svg>