<svg xmlns="http://www.w3.org/2000/svg" viewBox="0 0 640 400"><rect width="640" height="400" fill="#dbe8f6"/><rect x="14" y="14" width="612" height="372" rx="14" fill="none" stroke="#2a1218" stroke-width="2" stroke-dasharray="7 6" opacity=".4"/><rect x="436" y="78" width="15" height="15" rx="2" fill="#f2c14e" stroke="#2a1218" stroke-width="2" transform="rotate(27 443.5 85.5)"/><rect x="125" y="44" width="13" height="12" rx="2" fill="#2f6fb0" stroke="#2a1218" stroke-width="2" transform="rotate(11 131.5 50.0)"/><ellipse cx="339" cy="77" rx="7" ry="7" fill="#e4572e" stroke="#2a1218" stroke-width="2" transform="rotate(0 339 77)"/><rect x="50" y="294" width="12" height="13" rx="2" fill="#fff" stroke="#2a1218" stroke-width="2" transform="rotate(48 56.0 300.5)"/><rect x="575" y="156" width="9" height="15" rx="2" fill="#f2c14e" stroke="#2a1218" stroke-width="2" transform="rotate(78 579.5 163.5)"/><rect x="91" y="60" width="9" height="14" rx="2" fill="#2f6fb0" stroke="#2a1218" stroke-width="2" transform="rotate(12 95.5 67.0)"/><ellipse cx="535" cy="206" rx="4" ry="4" fill="#fff" stroke="#2a1218" stroke-width="2" transform="rotate(0 535 206)"/><ellipse cx="419" cy="242" rx="6" ry="6" fill="#2f6fb0" stroke="#2a1218" stroke-width="2" transform="rotate(0 419 242)"/><ellipse cx="395" cy="94" rx="7" ry="7" fill="#e4572e" stroke="#2a1218" stroke-width="2" transform="rotate(0 395 94)"/><ellipse cx="426" cy="134" rx="6" ry="6" fill="#fff" stroke="#2a1218" stroke-width="2" transform="rotate(0 426 134)"/><ellipse cx="104" cy="360" rx="6" ry="6" fill="#e4572e" stroke="#2a1218" stroke-width="2" transform="rotate(0 104 360)"/><rect x="279" y="87" width="10" height="12" rx="2" fill="#f2c14e" stroke="#2a1218" stroke-width="2" transform="rotate(14 284.0 93.0)"/><rect x="178" y="190" width="12" height="14" rx="2" fill="#f2c14e" stroke="#2a1218" stroke-width="2" transform="rotate(72 184.0 197.0)"/><ellipse cx="587" cy="240" rx="8" ry="8" fill="#e4572e" stroke="#2a1218" stroke-width="2" transform="rotate(0 587 240)"/><rect x="394" y="121" width="12" height="12" rx="2" fill="#f2c14e" stroke="#2a1218" stroke-width="2" transform="rotate(62 400.0 127.0)"/><ellipse cx="254" cy="175" rx="5" ry="5" fill="#e4572e" stroke="#2a1218" stroke-width="2" transform="rotate(0 254 175)"/><rect x="444" y="112" width="9" height="10" rx="2" fill="#f2c14e" stroke="#2a1218" stroke-width="2" transform="rotate(63 448.5 117.0)"/><ellipse cx="556" cy="221" rx="8" ry="8" fill="#e4572e" stroke="#2a1218" stroke-width="2" transform="rotate(0 556 221)"/><g transform="translate(2 2) rotate(-1.5 320 200)"><path d="M150 300 L490 300 L525 335 L115 335 Z" fill="#d5d8de" stroke="#2a1218" stroke-width="3" stroke-linecap="round" stroke-linejoin="round"/><rect x="180" y="92" width="280" height="196" rx="14" fill="#243447" stroke="#2a1218" stroke-width="3" transform="rotate(0 320.0 190.0)"/><rect x="204" y="116" width="79" height="11" rx="5" fill="#2f6fb0" stroke="#2a1218" stroke-width="2" transform="rotate(0 243.5 121.5)"/><rect x="204" y="142" width="136" height="11" rx="5" fill="#fff" stroke="#2a1218" stroke-width="2" transform="rotate(0 272.0 147.5)"/><rect x="204" y="168" width="165" height="11" rx="5" fill="#e4572e" stroke="#2a1218" stroke-width="2" transform="rotate(0 286.5 173.5)"/><rect x="204" y="194" width="143" height="11" rx="5" fill="#e4572e" stroke="#2a1218" stroke-width="2" transform="rotate(0 275.5 199.5)"/><rect x="204" y="220" width="117" height="11" rx="5" fill="#e4572e" stroke="#2a1218" stroke-width="2" transform="rotate(0 262.5 225.5)"/><rect x="204" y="246" width="166" height="11" rx="5" fill="#fff" stroke="#2a1218" stroke-width="2" transform="rotate(0 287.0 251.5)"/><rect x="546.0" y="106.0" width="16" height="18" rx="2" fill="#e4572e" stroke="#2a1218" stroke-width="3" transform="rotate(90 554.0 115.0)"/><rect x="536.0416305603426" y="130.0416305603426" width="16" height="18" rx="2" fill="#e4572e" stroke="#2a1218" stroke-width="3" transform="rotate(135 544.0416305603426 139.0416305603426)"/><rect x="512.0" y="140.0" width="16" height="18" rx="2" fill="#e4572e" stroke="#2a1218" stroke-width="3" transform="rotate(180 520.0 149.0)"/><rect x="487.95836943965736" y="130.0416305603426" width="16" height="18" rx="2" fill="#e4572e" stroke="#2a1218" stroke-width="3" transform="rotate(225 495.95836943965736 139.0416305603426)"/><rect x="478.0" y="106.0" width="16" height="18" rx="2" fill="#e4572e" stroke="#2a1218" stroke-width="3" transform="rotate(270 486.0 115.0)"/><rect x="487.95836943965736" y="81.95836943965739" width="16" height="18" rx="2" fill="#e4572e" stroke="#2a1218" stroke-width="3" transform="rotate(315 495.95836943965736 90.95836943965739)"/><rect x="512.0" y="72.0" width="16" height="18" rx="2" fill="#e4572e" stroke="#2a1218" stroke-width="3" transform="rotate(360 520.0 81.0)"/><rect x="536.0416305603426" y="81.95836943965737" width="16" height="18" rx="2" fill="#e4572e" stroke="#2a1218" stroke-width="3" transform="rotate(405 544.0416305603426 90.95836943965737)"/><ellipse cx="520" cy="115" rx="28" ry="28" fill="#e4572e" stroke="#2a1218" stroke-width="3" transform="rotate(0 520 115)"/><ellipse cx="520" cy="115" rx="11" ry="11" fill="#dbe8f6" stroke="#2a1218" stroke-width="3" transform="rotate(0 520 115)"/><path d="M92 150 q36 -36 72 0" fill="none" stroke="#2a1218" stroke-width="3" stroke-linecap="round" stroke-linejoin="round"/><path d="M104 168 q24 -24 48 0" fill="none" stroke="#2a1218" stroke-width="3" stroke-linecap="round" stroke-linejoin="round"/><ellipse cx="128" cy="184" rx="6" ry="6" fill="#f2c14e" stroke="#2a1218" stroke-width="3" transform="rotate(0 128 184)"/></g></svg>