<svg xmlns="http://www.w3.org/2000/svg" viewBox="0 0 640 400"><rect width="640" height="400" fill="#fbefc6"/><rect x="14" y="14" width="612" height="372" rx="14" fill="none" stroke="#2a1218" stroke-width="2" stroke-dasharray="7 6" opacity=".4"/><rect x="563" y="339" width="9" height="15" rx="2" fill="#6a994e" stroke="#2a1218" stroke-width="2" transform="rotate(26 567.5 346.5)"/><rect x="248" y="214" width="11" height="13" rx="2" fill="#c98a00" stroke="#2a1218" stroke-width="2" transform="rotate(9 253.5 220.5)"/><ellipse cx="394" cy="281" rx="6" ry="6" fill="#c2391f" stroke="#2a1218" stroke-width="2" transform="rotate(0 394 281)"/><ellipse cx="522" cy="339" rx="8" ry="8" fill="#c2391f" stroke="#2a1218" stroke-width="2" transform="rotate(0 522 339)"/><ellipse cx="599" cy="96" rx="7" ry="7" fill="#fff" stroke="#2a1218" stroke-width="2" transform="rotate(0 599 96)"/><ellipse cx="288" cy="73" rx="4" ry="4" fill="#c98a00" stroke="#2a1218" stroke-width="2" transform="rotate(0 288 73)"/><ellipse cx="116" cy="247" rx="4" ry="4" fill="#c2391f" stroke="#2a1218" stroke-width="2" transform="rotate(0 116 247)"/><rect x="307" y="259" width="15" height="15" rx="2" fill="#6a994e" stroke="#2a1218" stroke-width="2" transform="rotate(88 314.5 266.5)"/><rect x="579" y="125" width="9" height="12" rx="2" fill="#c98a00" stroke="#2a1218" stroke-width="2" transform="rotate(59 583.5 131.0)"/><ellipse cx="527" cy="77" rx="8" ry="8" fill="#6a994e" stroke="#2a1218" stroke-width="2" transform="rotate(0 527 77)"/><rect x="419" y="342" width="10" height="10" rx="2" fill="#6a994e" stroke="#2a1218" stroke-width="2" transform="rotate(14 424.0 347.0)"/><rect x="424" y="224" width="15" height="12" rx="2" fill="#6a994e" stroke="#2a1218" stroke-width="2" transform="rotate(1 431.5 230.0)"/><rect x="575" y="74" width="13" height="11" rx="2" fill="#6a994e" stroke="#2a1218" stroke-width="2" transform="rotate(61 581.5 79.5)"/><ellipse cx="363" cy="168" rx="7" ry="7" fill="#c98a00" stroke="#2a1218" stroke-width="2" transform="rotate(0 363 168)"/><ellipse cx="362" cy="80" rx="4" ry="4" fill="#c98a00" stroke="#2a1218" stroke-width="2" transform="rotate(0 362 80)"/><ellipse cx="70" cy="304" rx="4" ry="4" fill="#c2391f" stroke="#2a1218" stroke-width="2" transform="rotate(0 70 304)"/><ellipse cx="82" cy="86" rx="4" ry="4" fill="#c98a00" stroke="#2a1218" stroke-width="2" transform="rotate(0 82 86)"/><ellipse cx="268" cy="230" rx="7" ry="7" fill="#c98a00" stroke="#2a1218" stroke-width="2" transform="rotate(0 268 230)"/><g transform="translate(-12 9) rotate(-1.5 320 200)"><path d="M165 225 H475 Q470 340 320 345 Q170 340 165 225 Z" fill="#c98a00" stroke="#2a1218" stroke-width="3" stroke-linecap="round" stroke-linejoin="round"/><ellipse cx="320" cy="225" rx="155" ry="30" fill="#c2391f" stroke="#2a1218" stroke-width="3" transform="rotate(0 320 225)"/><ellipse cx="270" cy="222" rx="9" ry="9" fill="#6a994e" stroke="#2a1218" stroke-width="2" transform="rotate(0 270 222)"/><ellipse cx="330" cy="230" rx="9" ry="9" fill="#6a994e" stroke="#2a1218" stroke-width="2" transform="rotate(0 330 230)"/><ellipse cx="380" cy="220" rx="9" ry="9" fill="#6a994e" stroke="#2a1218" stroke-width="2" transform="rotate(0 380 220)"/><ellipse cx="300" cy="215" rx="9" ry="9" fill="#6a994e" stroke="#2a1218" stroke-width="2" transform="rotate(0 300 215)"/><path d="M270 190 q-16 -22 0 -44 q16 -22 0 -44" fill="none" stroke="#2a1218" stroke-width="3" stroke-linecap="round" stroke-linejoin="round"/><path d="M320 190 q-16 -22 0 -44 q16 -22 0 -44" fill="none" stroke="#2a1218" stroke-width="3" stroke-linecap="round" stroke-linejoin="round"/><path d="M370 190 q-16 -22 0 -44 q16 -22 0 -44" fill="none" stroke="#2a1218" stroke-width="3" stroke-linecap="round" stroke-linejoin="round"/><rect x="470" y="100" width="16" height="160" rx="8" fill="#e8d9c0" stroke="#2a1218" stroke-width="3" transform="rotate(28 478.0 180.0)"/><ellipse cx="158" cy="128" rx="28" ry="28" fill="#fff" stroke="#2a1218" stroke-width="3" transform="rotate(0 158 128)"/><ellipse cx="194" cy="106" rx="32" ry="32" fill="#fff" stroke="#2a1218" stroke-width="3" transform="rotate(0 194 106)"/><ellipse cx="232" cy="128" rx="28" ry="28" fill="#fff" stroke="#2a1218" stroke-width="3" transform="rotate(0 232 128)"/><rect x="148" y="130" width="96" height="44" rx="6" fill="#fff" stroke="#2a1218" stroke-width="3" transform="rotate(0 196.0 152.0)"/><rect x="148" y="166" width="96" height="14" rx="3" fill="#6a994e" stroke="#2a1218" stroke-width="3" transform="rotate(0 196.0 173.0)"/></g></svg>